<?xml version="1.0" encoding="utf-8"?>
<!-- Generator: Adobe Illustrator 19.1.1, SVG Export Plug-In . SVG Version: 6.00 Build 0)  -->
<svg version="1.1" id="Capa_1" xmlns="http://www.w3.org/2000/svg" xmlns:xlink="http://www.w3.org/1999/xlink" x="0px" y="0px"
	 viewBox="-173 -26 612 612" style="enable-background:new -173 -26 612 612;" xml:space="preserve">
<style type="text/css">
	.st0{fill:#FFFFFF;}
</style>
<g>
	<g id="Left">
		<g>
			<path class="st0" d="M180.8,146.1c-7.5,0-14.2,2.9-19.3,7.6l-0.1-0.1L46.7,258.8c-5.9,5.5-9.3,13.1-9.3,21.2s3.4,15.7,9.3,21.2
				l114.8,105.2l0.1-0.1c5.1,4.7,11.9,7.6,19.3,7.6c15.8,0,28.7-12.9,28.7-28.7c0-8.4-3.6-15.8-9.4-21.1l0.1-0.1l-91.7-84l91.7-84.1
				l-0.1-0.1c5.7-5.2,9.4-12.7,9.4-21.1C209.5,159,196.6,146.1,180.8,146.1z M133-26c-169,0-306,137-306,306s137,306,306,306
				s306-137,306-306S302-26,133-26z M133,528.6c-137.1,0-248.6-111.5-248.6-248.6S-4.1,31.4,133,31.4S381.6,142.9,381.6,280
				S270.1,528.6,133,528.6z"/>
		</g>
	</g>
</g>
</svg>
