<?xml version="1.0" encoding="utf-8"?>
<!-- Generator: Adobe Illustrator 19.1.1, SVG Export Plug-In . SVG Version: 6.00 Build 0)  -->
<svg version="1.1" id="Capa_1" xmlns="http://www.w3.org/2000/svg" xmlns:xlink="http://www.w3.org/1999/xlink" x="0px" y="0px"
	 viewBox="-375 177.9 207.1 207.1" style="enable-background:new -375 177.9 207.1 207.1;" xml:space="preserve">
<style type="text/css">
	.st0{fill:#FFFFFF;}
</style>
<path class="st0" d="M-261.3,385h-20.3c-4.5,0-8.2-3.7-8.2-8.2v-25.2l-36.7-59.4c0,0,0,0,0-0.1c-9.6-12-15.3-27.3-15.3-43.8
	c0-38.8,31.6-70.4,70.3-70.4c0,0,0,0,0.1,0c0,0,0,0,0.1,0c38.8,0,70.3,31.6,70.3,70.4c0,16.6-5.7,31.8-15.3,43.8c0,0,0,0,0,0.1
	l-36.7,59.4v25.2C-253.1,381.3-256.8,385-261.3,385z M-284.8,353.3v23.5c0,1.8,1.4,3.2,3.2,3.2h20.3c1.8,0,3.2-1.4,3.2-3.2v-23.5
	h-1.7c0,0-0.1,0-0.1,0h-23.2c0,0-0.1,0-0.1,0H-284.8L-284.8,353.3z M-277.3,348.3h11.3v-29.9c-1.8,0.1-3.6,0.2-5.4,0.2
	c0,0,0,0-0.1,0h0h0c0,0,0,0-0.1,0c-1.9,0-3.9-0.1-5.8-0.2V348.3z M-245.8,313.8l-10.2,32.8l25.4-41
	C-235.2,308.9-240.3,311.7-245.8,313.8z M-312.3,305.6l25,40.5l-9.9-32.3C-302.5,311.7-307.6,308.9-312.3,305.6z M-260.9,317.9v28
	l9.3-30C-254.6,316.7-257.8,317.4-260.9,317.9z M-291.3,315.8l9,29.5v-27.5C-285.3,317.4-288.3,316.7-291.3,315.8z M-271.4,183
	c-3.9,1.4-26.5,12-26.5,65.3c0,46.8,21.5,62.1,26.5,65.1c5-3,26.5-18.5,26.5-65.1C-244.9,194.7-267.5,184.4-271.4,183z
	 M-244.6,188.6c0.4,0.2,0.7,0.5,1.1,0.7c12.6,8.9,27.5,26.3,27.5,58.9c0,29.4-14.9,47-27.4,56.5c-3.2,2.4-6.3,4.5-9.3,6.2
	c27-8,46.8-33.1,46.8-62.7C-206,221.8-221.9,198.9-244.6,188.6z M-298.3,188.6c-22.7,10.3-38.6,33.1-38.6,59.6
	c0,29.6,19.7,54.6,46.8,62.7c-3-1.7-6.2-3.7-9.3-6.2c-12.5-9.6-27.4-27.1-27.4-56.5c0-32.6,15-50,27.5-58.9
	C-299,189.1-298.6,188.9-298.3,188.6z M-256.9,187.5c8.2,9.2,16.9,26.9,16.9,60.8c0,31.6-9.4,49.8-17.7,59.6
	c3.5-1.9,7.4-4.2,11.3-7.2c16.8-12.9,25.3-30.6,25.3-52.4c0-24.4-8.5-42.8-25.2-54.7C-249.9,191-253.5,189-256.9,187.5z M-286,187.5
	c-3.3,1.5-7,3.5-10.6,6.1c-16.7,11.9-25.2,30.3-25.2,54.7c0,21.9,8.5,39.5,25.3,52.4c3.9,3,7.8,5.3,11.3,7.2
	c-8.4-9.9-17.7-28-17.7-59.6C-302.9,214.4-294.2,196.7-286,187.5z"/>
</svg>
