<?xml version="1.0" encoding="utf-8"?>
<!-- Generator: Adobe Illustrator 19.1.1, SVG Export Plug-In . SVG Version: 6.00 Build 0)  -->
<svg version="1.1" id="Capa_1" xmlns="http://www.w3.org/2000/svg" xmlns:xlink="http://www.w3.org/1999/xlink" x="0px" y="0px"
	 viewBox="-173 -26 612 612" style="enable-background:new -173 -26 612 612;" xml:space="preserve">
<style type="text/css">
	.st0{fill:#FFFFFF;}
</style>
<g>
	<g id="Down">
		<g>
			<path class="st0" d="M133-26c-169,0-306,137-306,306s137,306,306,306s306-137,306-306S302-26,133-26z M133,528.6
				c-137.1,0-248.6-111.5-248.6-248.6S-4.1,31.4,133,31.4S381.6,142.9,381.6,280S270.1,528.6,133,528.6z M238.2,203.5
				c-8.4,0-15.8,3.6-21.1,9.4l-0.1-0.1l-84,91.7l-84.1-91.7l-0.1,0.1c-5.2-5.7-12.7-9.4-21.1-9.4c-15.8,0-28.7,12.9-28.7,28.7
				c0,7.5,2.9,14.2,7.6,19.3l-0.1,0.1l105.2,114.8c5.5,5.9,13.1,9.3,21.2,9.3s15.7-3.4,21.1-9.3l105.2-114.7l-0.1-0.1
				c4.7-5.1,7.6-11.9,7.6-19.3C266.9,216.4,254,203.5,238.2,203.5z"/>
		</g>
	</g>
</g>
</svg>
