<?xml version="1.0" encoding="utf-8"?>
<!-- Generator: Adobe Illustrator 19.1.1, SVG Export Plug-In . SVG Version: 6.00 Build 0)  -->
<svg version="1.1" id="Capa_1" xmlns="http://www.w3.org/2000/svg" xmlns:xlink="http://www.w3.org/1999/xlink" x="0px" y="0px"
	 viewBox="-173 -26 612 612" style="enable-background:new -173 -26 612 612;" xml:space="preserve">
<style type="text/css">
	.st0{fill:#FFFFFF;}
</style>
<g>
	<g id="Add">
		<g>
			<path class="st0" d="M228.6,241.8h-57.4v-57.4c0-21.1-17.1-38.3-38.3-38.3s-38.3,17.1-38.3,38.3v57.4H37.4
				c-21.1,0-38.3,17.1-38.3,38.3c0,21.1,17.1,38.3,38.3,38.3h57.4v57.4c0,21.1,17.1,38.3,38.3,38.3s38.3-17.1,38.3-38.3v-57.4h57.4
				c21.1,0,38.3-17.1,38.3-38.3S249.7,241.8,228.6,241.8z M133-26c-169,0-306,137-306,306s137,306,306,306s306-137,306-306
				S302-26,133-26z M133,528.6c-137.1,0-248.6-111.5-248.6-248.6S-4.1,31.4,133,31.4S381.6,142.9,381.6,280S270.1,528.6,133,528.6z"
				/>
		</g>
	</g>
</g>
</svg>
